<?xml version="1.0" encoding="UTF-8"?>
<svg id="uuid-93f768b9-e13a-497b-b231-76a6e12d09cc" data-name="Layer 2" xmlns="http://www.w3.org/2000/svg" width="379.4" height="108.6" viewBox="0 0 379.4 108.6">
  <defs>
    <style>
      .uuid-7f664455-2c0c-43c3-bad6-3b19ff647850 {
        fill: #fff;
      }

      .uuid-99ae21ee-3ce8-4776-bd8d-075a19964012 {
        fill: none;
        stroke: #fff;
        stroke-miterlimit: 10;
      }
    </style>
  </defs>
  <g id="uuid-474563aa-874e-459a-a6fe-98049d88579d" data-name="Capa 1">
    <g>
      <g>
        <path class="uuid-99ae21ee-3ce8-4776-bd8d-075a19964012" d="M.5,62.6L23.3,11.5h11.7l22.9,51.1h-12.4L26.7,17.4h4.7L12.6,62.6H.5Zm11.4-11l3.1-9h26.3l3.2,9H11.9Z"/>
        <path class="uuid-99ae21ee-3ce8-4776-bd8d-075a19964012" d="M84.8,63.4c-7.3,0-12.9-2-17-6.1-4.1-4-6.1-9.8-6.1-17.3V11.5h11.8v28.2c0,4.9,1,8.4,3,10.5,2,2.1,4.8,3.2,8.4,3.2s6.4-1.1,8.4-3.2c2-2.1,3-5.6,3-10.5V11.5h11.7v28.6c0,7.5-2,13.3-6.1,17.3-4.1,4-9.8,6.1-17,6.1Z"/>
        <path class="uuid-99ae21ee-3ce8-4776-bd8d-075a19964012" d="M136.4,63.4c-4.1,0-8-.5-11.8-1.6-3.7-1.1-6.8-2.5-9.1-4.3l4-8.9c2.2,1.6,4.8,2.8,7.8,3.8s6,1.5,9.1,1.5,4.2-.2,5.7-.7c1.4-.5,2.5-1.1,3.2-1.9,.7-.8,1-1.8,1-2.8s-.5-2.4-1.6-3.2c-1.1-.8-2.5-1.5-4.2-2-1.8-.5-3.7-1-5.8-1.5-2.1-.5-4.2-1-6.4-1.7-2.1-.7-4.1-1.6-5.8-2.6-1.8-1.1-3.2-2.5-4.3-4.2-1.1-1.8-1.6-4-1.6-6.7s.8-5.6,2.4-8c1.6-2.4,4-4.3,7.2-5.8,3.2-1.4,7.2-2.2,12-2.2s6.4,.4,9.5,1.1c3.1,.8,5.9,1.9,8.3,3.4l-3.7,9c-2.4-1.4-4.8-2.4-7.2-3-2.4-.7-4.7-1-7-1s-4.2,.3-5.6,.8c-1.5,.5-2.5,1.2-3.1,2.1-.6,.9-.9,1.8-.9,3s.5,2.4,1.6,3.2c1.1,.8,2.5,1.4,4.2,1.9,1.8,.5,3.7,1,5.8,1.5,2.1,.5,4.2,1,6.4,1.7,2.1,.6,4.1,1.5,5.8,2.6,1.8,1.1,3.2,2.5,4.3,4.2,1.1,1.8,1.6,4,1.6,6.6s-.8,5.5-2.4,7.9c-1.6,2.4-4,4.3-7.2,5.8-3.2,1.5-7.2,2.2-12.1,2.2Z"/>
        <path class="uuid-99ae21ee-3ce8-4776-bd8d-075a19964012" d="M176,62.6V21.1h-16.4V11.5h44.5v9.6h-16.4V62.6h-11.8Z"/>
        <path class="uuid-7f664455-2c0c-43c3-bad6-3b19ff647850" d="M210.6,62.6V11.5h22.1c4.6,0,8.5,.7,11.8,2.2,3.3,1.5,5.9,3.6,7.7,6.4,1.8,2.8,2.7,6.1,2.7,9.9s-.9,7.1-2.7,9.8c-1.8,2.8-4.4,4.9-7.7,6.3-3.3,1.5-7.3,2.2-11.8,2.2h-15.6l5.3-5.2v19.4h-11.8Zm11.8-18.1l-5.3-5.5h14.9c3.7,0,6.4-.8,8.2-2.4,1.8-1.6,2.7-3.8,2.7-6.5s-.9-5-2.7-6.6c-1.8-1.6-4.5-2.3-8.2-2.3h-14.9l5.3-5.6v29Zm20.7,18.1l-12.8-18.5h12.6l12.9,18.5h-12.8Z"/>
        <path class="uuid-7f664455-2c0c-43c3-bad6-3b19ff647850" d="M257.5,62.6l22.8-51.1h11.7l22.9,51.1h-12.4l-18.7-45.1h4.7l-18.8,45.1h-12.1Zm11.4-11l3.1-9h26.3l3.2,9h-32.6Z"/>
        <path class="uuid-7f664455-2c0c-43c3-bad6-3b19ff647850" d="M320.2,62.6V11.5h11.8V52.9h25.6v9.6h-37.5Z"/>
      </g>
      <g>
        <path class="uuid-7f664455-2c0c-43c3-bad6-3b19ff647850" d="M173.4,100.7v-21.2h4.9v21.2h-4.9Z"/>
        <path class="uuid-7f664455-2c0c-43c3-bad6-3b19ff647850" d="M183.4,100.7v-21.2h4.1l12.5,15.3h-2v-15.3h4.9v21.2h-4l-12.6-15.3h2v15.3h-4.9Z"/>
        <path class="uuid-7f664455-2c0c-43c3-bad6-3b19ff647850" d="M218.2,101.1c-1.7,0-3.2-.3-4.6-.8-1.4-.5-2.6-1.3-3.7-2.3-1-1-1.9-2.2-2.4-3.5-.6-1.3-.9-2.8-.9-4.4s.3-3.1,.9-4.4c.6-1.3,1.4-2.5,2.4-3.5,1.1-1,2.3-1.8,3.7-2.3s3-.8,4.7-.8,3.6,.3,5.1,.9c1.5,.6,2.8,1.5,3.8,2.7l-3.2,2.9c-.8-.8-1.6-1.4-2.5-1.8s-1.9-.6-3-.6-2,.2-2.8,.5c-.9,.3-1.6,.8-2.2,1.4-.6,.6-1.1,1.3-1.4,2.2-.3,.8-.5,1.8-.5,2.8s.2,1.9,.5,2.7,.8,1.6,1.4,2.2c.6,.6,1.3,1.1,2.2,1.4,.8,.3,1.8,.5,2.8,.5s1.9-.2,2.8-.5c.9-.3,1.8-.8,2.7-1.6l2.8,3.6c-1.2,.9-2.5,1.5-4,2-1.5,.5-3.1,.7-4.6,.7Zm4.1-3.3v-8h4.5v8.6l-4.5-.6Z"/>
        <path class="uuid-7f664455-2c0c-43c3-bad6-3b19ff647850" d="M236.2,96.8h11.6v3.9h-16.5v-21.2h16.1v3.9h-11.2v13.4Zm-.4-8.7h10.2v3.8h-10.2v-3.8Z"/>
        <path class="uuid-7f664455-2c0c-43c3-bad6-3b19ff647850" d="M251.7,100.7v-21.2h4.1l12.5,15.3h-2v-15.3h4.9v21.2h-4l-12.6-15.3h2v15.3h-4.9Z"/>
        <path class="uuid-7f664455-2c0c-43c3-bad6-3b19ff647850" d="M276.2,100.7v-21.2h4.9v21.2h-4.9Z"/>
        <path class="uuid-7f664455-2c0c-43c3-bad6-3b19ff647850" d="M291.1,96.8h11.6v3.9h-16.5v-21.2h16.1v3.9h-11.2v13.4Zm-.4-8.7h10.2v3.8h-10.2v-3.8Z"/>
        <path class="uuid-7f664455-2c0c-43c3-bad6-3b19ff647850" d="M306.5,100.7v-21.2h9.2c1.9,0,3.5,.3,4.9,.9,1.4,.6,2.4,1.5,3.2,2.7,.7,1.2,1.1,2.5,1.1,4.1s-.4,2.9-1.1,4.1c-.7,1.1-1.8,2-3.2,2.6-1.4,.6-3,.9-4.9,.9h-6.5l2.2-2.2v8.1h-4.9Zm4.9-7.5l-2.2-2.3h6.2c1.5,0,2.7-.3,3.4-1,.7-.7,1.1-1.6,1.1-2.7s-.4-2.1-1.1-2.7c-.7-.6-1.9-1-3.4-1h-6.2l2.2-2.3v12.1Zm8.6,7.5l-5.3-7.7h5.3l5.4,7.7h-5.3Z"/>
        <path class="uuid-7f664455-2c0c-43c3-bad6-3b19ff647850" d="M328.8,100.7v-21.2h4.9v21.2h-4.9Z"/>
        <path class="uuid-7f664455-2c0c-43c3-bad6-3b19ff647850" d="M336,100.7l9.5-21.2h4.9l9.5,21.2h-5.2l-7.8-18.8h1.9l-7.8,18.8h-5Zm4.7-4.6l1.3-3.7h10.9l1.3,3.7h-13.6Z"/>
      </g>
    </g>
  </g>
</svg>