<?xml version="1.0" encoding="UTF-8"?>
<svg id="uuid-02006650-c9e1-42a4-988a-bb50df9527e1" data-name="Layer 2" xmlns="http://www.w3.org/2000/svg" width="257.4" height="70.5" viewBox="0 0 257.4 70.5">
  <defs>
    <style>
      .uuid-8735029f-25ac-406a-b5ae-8873c877151d {
        fill: #fff;
      }

      .uuid-7c4724cd-128e-4049-889b-9690ceee13d3 {
        fill: none;
        stroke: #fff;
        stroke-miterlimit: 10;
      }
    </style>
  </defs>
  <g id="uuid-0b94272b-284e-4c15-9393-650ea5faf2d8" data-name="Capa 1">
    <g>
      <g>
        <path class="uuid-7c4724cd-128e-4049-889b-9690ceee13d3" d="M60.9,38.3c-5.2,0-9.2-1.4-12.2-4.3-2.9-2.9-4.4-7-4.4-12.4V1.1h8.4V21.3c0,3.5,.7,6,2.1,7.5,1.4,1.5,3.4,2.3,6,2.3s4.6-.8,6-2.3c1.4-1.5,2.1-4,2.1-7.5V1.1h8.3V21.6c0,5.4-1.5,9.5-4.4,12.4-2.9,2.9-7,4.3-12.2,4.3Z"/>
        <path class="uuid-7c4724cd-128e-4049-889b-9690ceee13d3" d="M97.8,38.3c-2.9,0-5.7-.4-8.4-1.2-2.7-.8-4.8-1.8-6.5-3.1l2.9-6.4c1.6,1.1,3.4,2,5.6,2.7s4.3,1.1,6.5,1.1,3-.2,4-.5c1-.3,1.8-.8,2.3-1.4,.5-.6,.7-1.3,.7-2s-.4-1.7-1.1-2.3c-.8-.6-1.8-1-3-1.4-1.3-.4-2.6-.7-4.1-1-1.5-.3-3-.7-4.5-1.2-1.5-.5-2.9-1.1-4.1-1.9-1.3-.8-2.3-1.8-3.1-3-.8-1.3-1.2-2.9-1.2-4.8s.6-4,1.7-5.7c1.1-1.7,2.8-3.1,5.1-4.1,2.3-1,5.1-1.5,8.6-1.5s4.6,.3,6.8,.8c2.2,.5,4.2,1.3,5.9,2.4l-2.6,6.4c-1.7-1-3.4-1.7-5.1-2.2-1.7-.5-3.4-.7-5-.7s-3,.2-4,.6c-1,.4-1.8,.9-2.2,1.5-.5,.6-.7,1.3-.7,2.1s.4,1.7,1.1,2.3c.8,.6,1.8,1,3,1.4,1.3,.3,2.6,.7,4.1,1,1.5,.3,3,.7,4.5,1.2,1.5,.5,2.9,1.1,4.1,1.8,1.3,.8,2.3,1.8,3.1,3,.8,1.3,1.2,2.8,1.2,4.7s-.6,3.9-1.7,5.6c-1.1,1.7-2.9,3.1-5.1,4.1-2.3,1-5.2,1.6-8.6,1.6Z"/>
        <path class="uuid-7c4724cd-128e-4049-889b-9690ceee13d3" d="M126.1,37.6V8h-11.7V1.1h31.8v6.9h-11.7v29.6h-8.4Z"/>
        <path class="uuid-8735029f-25ac-406a-b5ae-8873c877151d" d="M150.8,37.6V1.1h15.8c3.3,0,6.1,.5,8.4,1.6,2.4,1.1,4.2,2.6,5.5,4.6,1.3,2,1.9,4.3,1.9,7.1s-.6,5.1-1.9,7c-1.3,2-3.1,3.5-5.5,4.5-2.4,1-5.2,1.6-8.4,1.6h-11.1l3.8-3.7v13.9h-8.4Zm8.4-12.9l-3.8-4h10.6c2.6,0,4.6-.6,5.8-1.7,1.3-1.1,1.9-2.7,1.9-4.7s-.6-3.6-1.9-4.7c-1.3-1.1-3.2-1.7-5.8-1.7h-10.6l3.8-4V24.7Zm14.8,12.9l-9.1-13.2h9l9.2,13.2h-9.1Z"/>
        <path class="uuid-8735029f-25ac-406a-b5ae-8873c877151d" d="M184.3,37.6L200.6,1.1h8.3l16.3,36.5h-8.9l-13.3-32.2h3.3l-13.4,32.2h-8.7Zm8.1-7.8l2.2-6.4h18.8l2.3,6.4h-23.3Z"/>
        <path class="uuid-8735029f-25ac-406a-b5ae-8873c877151d" d="M229,37.6V1.1h8.4V30.7h18.3v6.9h-26.8Z"/>
      </g>
      <g>
        <path class="uuid-8735029f-25ac-406a-b5ae-8873c877151d" d="M124.2,64.9v-15.2h3.5v15.2h-3.5Z"/>
        <path class="uuid-8735029f-25ac-406a-b5ae-8873c877151d" d="M131.3,64.9v-15.2h2.9l9,10.9h-1.4v-10.9h3.5v15.2h-2.9l-9-10.9h1.4v10.9h-3.5Z"/>
        <path class="uuid-8735029f-25ac-406a-b5ae-8873c877151d" d="M156.2,65.1c-1.2,0-2.3-.2-3.3-.6-1-.4-1.9-.9-2.6-1.6-.7-.7-1.3-1.5-1.7-2.5-.4-1-.6-2-.6-3.1s.2-2.2,.6-3.1c.4-1,1-1.8,1.7-2.5s1.6-1.3,2.6-1.6,2.1-.6,3.3-.6,2.6,.2,3.6,.7c1.1,.4,2,1.1,2.7,2l-2.3,2.1c-.5-.6-1.1-1-1.8-1.3-.7-.3-1.4-.4-2.1-.4s-1.4,.1-2,.3-1.1,.6-1.6,1-.8,.9-1,1.5c-.2,.6-.4,1.2-.4,2s.1,1.4,.4,2c.2,.6,.6,1.1,1,1.5,.4,.4,1,.8,1.6,1,.6,.2,1.3,.3,2,.3s1.4-.1,2-.3,1.3-.6,1.9-1.1l2,2.5c-.8,.6-1.8,1.1-2.9,1.4s-2.2,.5-3.3,.5Zm2.9-2.4v-5.7h3.2v6.2l-3.2-.5Z"/>
        <path class="uuid-8735029f-25ac-406a-b5ae-8873c877151d" d="M169.1,62h8.3v2.8h-11.8v-15.2h11.5v2.8h-8v9.5Zm-.3-6.2h7.3v2.7h-7.3v-2.7Z"/>
        <path class="uuid-8735029f-25ac-406a-b5ae-8873c877151d" d="M180.1,64.9v-15.2h2.9l9,10.9h-1.4v-10.9h3.5v15.2h-2.9l-9-10.9h1.4v10.9h-3.5Z"/>
        <path class="uuid-8735029f-25ac-406a-b5ae-8873c877151d" d="M197.6,64.9v-15.2h3.5v15.2h-3.5Z"/>
        <path class="uuid-8735029f-25ac-406a-b5ae-8873c877151d" d="M208.2,62h8.3v2.8h-11.8v-15.2h11.5v2.8h-8v9.5Zm-.3-6.2h7.3v2.7h-7.3v-2.7Z"/>
        <path class="uuid-8735029f-25ac-406a-b5ae-8873c877151d" d="M219.3,64.9v-15.2h6.6c1.4,0,2.5,.2,3.5,.7,1,.4,1.7,1.1,2.3,1.9,.5,.8,.8,1.8,.8,2.9s-.3,2.1-.8,2.9-1.3,1.4-2.3,1.9-2.2,.7-3.5,.7h-4.6l1.6-1.5v5.8h-3.5Zm3.5-5.4l-1.6-1.6h4.4c1.1,0,1.9-.2,2.4-.7,.5-.5,.8-1.1,.8-1.9s-.3-1.5-.8-2c-.5-.5-1.3-.7-2.4-.7h-4.4l1.6-1.7v8.6Zm6.1,5.4l-3.8-5.5h3.8l3.8,5.5h-3.8Z"/>
        <path class="uuid-8735029f-25ac-406a-b5ae-8873c877151d" d="M235.2,64.9v-15.2h3.5v15.2h-3.5Z"/>
        <path class="uuid-8735029f-25ac-406a-b5ae-8873c877151d" d="M240.3,64.9l6.8-15.2h3.5l6.8,15.2h-3.7l-5.5-13.4h1.4l-5.6,13.4h-3.6Zm3.4-3.3l.9-2.7h7.8l1,2.7h-9.7Z"/>
      </g>
      <path class="uuid-7c4724cd-128e-4049-889b-9690ceee13d3" d="M29.6,29.8H12.7l-3.2,7.8H.8L17.1,1.1h8.4l16.3,36.5h-8.9l-3.2-7.8Zm-2.7-6.4l-5.8-14-5.8,14h11.6Z"/>
    </g>
  </g>
</svg>