<?xml version="1.0" encoding="UTF-8"?>
<svg id="uuid-a625aab2-2139-48bc-9607-07918b2e5fa1" data-name="Layer 2" xmlns="http://www.w3.org/2000/svg" width="46.3" height="46.3" viewBox="0 0 46.3 46.3">
  <defs>
    <style>
      .uuid-7e15525f-f253-4348-9106-ec5c3fbd428a {
        fill: #2039b7;
      }
    </style>
  </defs>
  <g id="uuid-af0b0b13-ce06-46aa-9993-77ec22621fbf" data-name="Capa 1">
    <g>
      <path class="uuid-7e15525f-f253-4348-9106-ec5c3fbd428a" d="M23,0c6.2,0,11.8,2.1,16.4,6.5,4,3.9,6.3,8.7,6.8,14.2,.6,6.8-1.2,12.9-5.8,18-4.2,4.6-9.4,7.1-15.6,7.5-6.6,.5-12.4-1.6-17.3-6C3,36.2,.5,31,0,24.9-.4,18.3,1.7,12.5,6.1,7.6,10.2,3,16.3,.1,23,0Zm-2.7,3.3c-3.1,0-8.7,2.5-12.5,7.2-3.7,4.6-5.2,9.8-4.3,15.6,.7,4.8,2.9,8.9,6.6,12.1,4.3,3.8,9.3,5.4,15,4.9,5-.4,9.3-2.6,12.8-6.2,4.2-4.5,5.9-9.9,5.3-15.9-.5-5-2.7-9.2-6.5-12.6-4.1-3.7-8.9-5.3-16.3-5.1Z"/>
      <path class="uuid-7e15525f-f253-4348-9106-ec5c3fbd428a" d="M17.9,19.7c-.3-.3-.7-.6-1-1-.8-.8-1.4-1.8-1.8-2.9-.4-1.1-.5-2.2-.4-3.3,0-1.2,.5-2.3,1.1-3.4,.6-1,1.3-1.8,2.2-2.5,.6-.4,1.3-.8,2-1,.6-.2,1.1-.3,1.7-.4,.4,0,.9,0,1.3,0,1.3,0,2.6,.4,3.8,1.1,1.2,.7,2.1,1.6,2.8,2.8,.5,.9,.3,1.9-.6,2.3-.8,.4-1.6,.9-2.2,1.6-.4,.5-.8,1-1.1,1.6-.3,.6-.5,1.2-.7,1.8,0,.2,0,.5,0,.7,0,0,0,.2,.1,.2,.7,.2,1.3,.5,1.8,.9,.7,.5,1.3,1.2,1.7,1.9,.3,.6,.1,.5,.8,.3,.6-.2,1.2-.4,1.8-.4,.3,0,.6,0,1,0,.8,0,1.5,.1,2.3,.4,.9,.3,1.8,.7,2.6,1.4,.8,.7,1.5,1.5,2.1,2.5,.5,.8,.8,1.7,.9,2.6,.1,.6,.1,1.3,0,1.9,0,.7-.2,1.4-.4,2.1-.4,1.3-1.1,2.3-2.1,3.2-.6,.5-1.2,1-1.8,1.3-.8,.4-1.6,.7-2.5,.8-.4,0-.7,0-1.1,0-.7,0-1.5-.6-1.6-1.3,0-.2,0-.5,0-.7,0-.5,0-.9,0-1.4,0-.7-.3-1.4-.6-2.1-.5-1-1.2-1.9-2.1-2.5,0,0,0,0-.1,0-.1-.1-.2-.1-.4,0-.4,.3-.8,.6-1.3,.8-.6,.3-1.3,.5-2,.6-.5,0-.9,0-1.4,.1,0,.7-.3,1.5-.6,2.2-.4,1-1,1.8-1.7,2.6-.5,.5-1.1,1-1.7,1.4-.7,.4-1.5,.7-2.3,.9-.7,.2-1.3,.2-2,.2-.7,0-1.3-.1-1.9-.3-.8-.2-1.5-.5-2.2-1-1.1-.7-1.9-1.6-2.6-2.7-.5-.9-.9-1.9-1-2.9,0-.6-.1-1.3,0-1.9,0-.6,.1-1.3,.4-1.9,.2-.4,.4-.9,.6-1.3,.5-.9,1.5-1.1,2.4-.5,.8,.6,1.7,.9,2.7,1.1,.5,.1,1.1,.1,1.6,.1,.9,0,1.8-.3,2.7-.7,.1,0,.2-.1,.1-.3-.1-.5-.2-1-.2-1.6,0-.9,.2-1.8,.7-2.6,.1-.3,.3-.5,.4-.8Zm-3.3,14c.4,0,.7,0,1.1-.1,1-.2,1.8-.7,2.5-1.3,1-1,1.4-2.3,1.4-3.7,0,0,0-.1-.1-.2-.3-.2-.5-.4-.8-.6,0,0-.2,0-.2,0-.2,0-.4,.2-.6,.3-.6,.2-1.2,.4-1.8,.6-.5,.1-1,.1-1.5,.2-.7,.1-1.4,0-2.1,0-.8-.1-1.6-.4-2.4-.7-.1,0-.2,0-.2,.1-.1,.6,0,1.1,0,1.7,.2,.8,.5,1.6,1.1,2.3,1,1.1,2.2,1.7,3.7,1.7ZM26,9.4c-.2-.2-.5-.3-.7-.5-.8-.4-1.6-.7-2.5-.7-.4,0-.8,0-1.2,.1-.4,0-.7,.2-1,.4-.5,.3-1,.6-1.3,1-.7,.8-1.2,1.7-1.4,2.8-.1,.6,0,1.3,0,1.8,.4,1.3,1.1,2.4,2.3,3.1,0,0,.2,0,.3,0,.3,0,.6-.2,.9-.3,.4-.1,.4-.1,.4-.5,0,0,0-.1,0-.2,0-.8,.3-1.5,.5-2.2,.5-1.5,1.4-2.7,2.4-3.8,.3-.4,.8-.7,1.2-1Zm7.8,23.3s0,0,.1,0c.3-.2,.7-.4,1-.6,1.3-.9,2-2.1,2.1-3.7,0-.6,0-1.2-.2-1.8-.4-1.2-1.1-2.1-2.1-2.8-.8-.5-1.7-.7-2.6-.7-.8,0-1.6,.2-2.3,.6-.2,0-.3,.2-.3,.4,0,.3-.1,.6-.2,.9,0,.2,0,.3,.1,.3,.9,.5,1.6,1.2,2.2,2,.8,1,1.4,2.1,1.8,3.3,.2,.6,.3,1.3,.5,2Zm-10.6-6.3c1.7,0,3.1-1.4,3.2-3,0-1.9-1.4-3.3-3.2-3.3-1.6,0-3,1.4-3.1,3,0,1.9,1.5,3.3,3.2,3.3Z"/>
    </g>
  </g>
</svg>