<?xml version="1.0" encoding="UTF-8"?>
<svg id="uuid-e2bdd50b-58d6-4cb0-bae7-fe222baca48c" data-name="Layer 2" xmlns="http://www.w3.org/2000/svg" width="66.8" height="41" viewBox="0 0 66.8 41">
  <defs>
    <style>
      .uuid-f202d39b-7699-458b-8ca1-b95569454a28 {
        fill: #2039b7;
      }
    </style>
  </defs>
  <g id="uuid-cafd1892-eb27-47ff-843e-e7e7c02e5d9f" data-name="Capa 1">
    <g>
      <path class="uuid-f202d39b-7699-458b-8ca1-b95569454a28" d="M55.8,28.7c-.3,0-.6,.3-.9,.3-6.5,0-13.1,0-19.6,0,0-.6-.1-1-.8-.4-.3-1.1,0-1.4,1.5-1.6v-4.6h-5.4c0,1.4,0,2.8,0,4.2,0,.4,.8,.6,1.4,1,0,0,0,.2-.1,.4l-.3,.5-.5,.5c-6.6,0-13.2,0-19.7,0-.1,0-.2-.1-.3-.2-.4-.7-.6-1.8-1.8-1.1l-.5-.5-.2-.8-.7-.5c-.3-.2-.7-.5-1.1-.5-1.4-.1-2.8-.2-4.2-.3-.3,0-.5-.4-.8-.5l-.3-.5c0-1.3-.2-2.5-1.3-3.4,0-5.1-.2-10.1,0-15.2C.2,3.9,0,2,1.6,.8l.5-.3c.6-.2,1.2-.4,1.7-.5,1.3,0,2.7,0,4,0l.8,1.5c-.8,0-1.6,.2-2.3,.2-1,0-1.9,.1-2.9,.2l-.4-.7-.6,.4,.4,.3c-.8,.7-1,1.6-1,2.6,0,3.3,0,6.6,0,9.9l.4,.8c.2,.8,.7,1.3,1.6,1.3,19.3,0,38.5,0,57.8,0,2.5,0,3-.6,3-3,0-2.8,0-5.6,0-8.5,0-.8-.3-1.7-.4-2.5l1.1-1.3c.4,.7,1.6,1.2,.5,2.3,0,0,0,.2,.1,.3,1,1.1,.6,2.4,.6,3.7,0,4.3,0,8.7,0,13l-.6,1.2h0l-.6,2.2c-1.9,1.9-4.3,1.1-6.4,1.3l-1.7,2.4c-1.1-.7-1.1,.5-1.6,1Zm-44.3-1.6h2.8v-4.8h-4.7v2.5l-.2,1.2h.8l.8,.9v.7l.5-.4Zm45.4-2.3v-2.6h-4.7v2.2q0,2.8,2.9,2.7l.7,.4,.4-1.1c0,0,.2,0,.2,0l1.3-.8-.7-.8Zm-6.6-2.6l-.2-.2h-4.9v4.6l.2,.2h4.9v-4.6Zm-28.7,4.4v-4.6h-5.2l-.2,.2v4.6h5.2l.2-.2ZM2.1,18.3c0,1.2-.2,2.3,0,3.5,.1,.7,.6,1.5,1.6,1.5,1.4,0,2.8,0,4.2,0,0-1.3,0-2.5,1.3-3,.6-.2,1.3-.2,1.9-.2,15.1,0,30.2,0,45.3,0,1.5,0,2.3,.8,2.3,2.3,0,.3,0,.6,0,.9,1.4,0,2.7,0,4,0,1.1,0,1.8-.7,1.9-1.8,0-1,0-2.1,0-2.8H3.4l-1-1.1-.4,.7Zm21.4,8.8h5.1v-4.8h-5.1v4.8Zm14.3-.2h5.1v-4.6h-5.1v4.6Z"/>
      <path class="uuid-f202d39b-7699-458b-8ca1-b95569454a28" d="M65.5,1.4l-1.1,1.3c-1-.3-1.9-.8-2.9-.8-16.1,0-32.3,0-48.4,0-.3,0-.7,.1-.9,0-.4-.2-.8-.6-1.2-.9,.4-.3,.7-.7,1.1-.9,.5-.2,1,0,1.5,0,16.1,0,32.3,0,48.4,0,1.3,0,2.5,.2,3.4,1.4Z"/>
      <path class="uuid-f202d39b-7699-458b-8ca1-b95569454a28" d="M60.7,12.1c0,1.7-1.5,3.2-3.2,3.1-1.5,0-3.1-1.6-3.1-3.1,0-1.6,1.6-3.2,3.2-3.1,1.7,.1,3.1,1,3.1,3.1Zm-3.3,1.2h.5c.3-.4,.8-.8,.9-1.3,0-.8-.5-1-1.3-1-.7,0-1.2,.2-1,.9,.1,.5,.6,.9,.9,1.4Z"/>
      <path class="uuid-f202d39b-7699-458b-8ca1-b95569454a28" d="M26.3,34.2c0,4.6-3,7-6.3,6.8-.4,0-1.1-.3-1.1-.6-.2-.5,0-1.2,0-1.7,0,0,.7,0,1,0,1.1,.4,3.2,0,3.4-.9,.3-1.2,1.4-2.1,.9-3.5,0-.2,0-.5,0-.6,.3-.4,.6-.8,1-1,.2,0,.7,.4,.8,.7,.2,.3,.2,.8,.2,.8Z"/>
      <path class="uuid-f202d39b-7699-458b-8ca1-b95569454a28" d="M40.6,32.8c1.6,0,1.7,.7,1.6,1.6-.2,1.4,.6,2.5,1.3,3.6,.7,1,1.7,1,2.8,.9,.8,0,1.6,0,1.5,.9,0,.8-.7,1.2-1.6,1.2-3.1,.2-6.4-2.8-5.8-5.8,.2-.8,.2-1.7,.2-2.5Z"/>
      <path class="uuid-f202d39b-7699-458b-8ca1-b95569454a28" d="M20.9,31.1c-.2,1.4-.2,2.8-.7,4-.6,1.5-3.4,2-4.9,1.1-.1,0-.3-.2-.6-.5,.5-.4,.9-.9,1.4-1.1,1.7-.6,3-1.4,2.6-3.6h2.1Z"/>
      <path class="uuid-f202d39b-7699-458b-8ca1-b95569454a28" d="M47.7,30.7c0,1.8,0,3.1,1.3,3.7,.4,.2,.9,.2,1.3,.4,.4,.2,.7,.6,1,.9-.3,.3-.6,.8-1,.8-3.2,.6-4.9-2.2-4.4-4.8,0-.4,1-.6,1.8-1.1Z"/>
      <path class="uuid-f202d39b-7699-458b-8ca1-b95569454a28" d="M30.2,9.8c.8-.5,1.2-1,1.7-1.1,1,0,2,0,2.9,.2,.4,0,.6,.6,.9,.9-.3,.3-.6,.8-.9,.9-1,.2-2,.2-3,.2-.4,0-.8-.5-1.5-1.1Z"/>
      <path class="uuid-f202d39b-7699-458b-8ca1-b95569454a28" d="M0,20.6c1,.9,1.3,2.1,1.3,3.4,0,0-.2,0-.3,0C0,23.1-.1,21.9,0,20.6Z"/>
      <path class="uuid-f202d39b-7699-458b-8ca1-b95569454a28" d="M66,21.9l.6-1.2c0,1.3-.2,2.5-1.3,3.4,.2-.8,.4-1.5,.6-2.3h0Z"/>
      <path class="uuid-f202d39b-7699-458b-8ca1-b95569454a28" d="M9.1,27.7c1.3-.8,1.4,.4,1.8,1.1l-1.8-1.1Z"/>
      <path class="uuid-f202d39b-7699-458b-8ca1-b95569454a28" d="M8.6,1.6L7.8,.1c1.3,.1,1.5,.5,.8,1.5Z"/>
      <path class="uuid-f202d39b-7699-458b-8ca1-b95569454a28" d="M55.8,28.7c.4-.5,.4-1.6,1.6-1l-1.6,1Z"/>
      <path class="uuid-f202d39b-7699-458b-8ca1-b95569454a28" d="M2.9,2.2l-.4-.3,.6-.4,.4,.7h-.5Z"/>
      <path class="uuid-f202d39b-7699-458b-8ca1-b95569454a28" d="M34.4,28.5c.7-.5,.8-.1,.8,.4l-.8-.4Z"/>
      <path class="uuid-f202d39b-7699-458b-8ca1-b95569454a28" d="M2.3,15.5l-.4-.8,.4,.8Z"/>
      <path class="uuid-f202d39b-7699-458b-8ca1-b95569454a28" d="M7.6,25.9l.7,.5v.3l-.7-.8Z"/>
      <path class="uuid-f202d39b-7699-458b-8ca1-b95569454a28" d="M8.4,26.7v-.3c0,.3,.2,.5,.2,.8l-.2-.5Z"/>
      <path class="uuid-f202d39b-7699-458b-8ca1-b95569454a28" d="M31.6,28.5c0,0,.1,0,.2,0l-.8,.5,.5-.5Z"/>
      <path class="uuid-f202d39b-7699-458b-8ca1-b95569454a28" d="M1.1,24c0,0,.2,0,.3,0l.3,.5-.5-.5Z"/>
      <path class="uuid-f202d39b-7699-458b-8ca1-b95569454a28" d="M2.1,.6l-.5,.3,.5-.3Z"/>
      <path class="uuid-f202d39b-7699-458b-8ca1-b95569454a28" d="M56.3,26.4l.6-1.6,.7,.8-1.3,.8Z"/>
      <path class="uuid-f202d39b-7699-458b-8ca1-b95569454a28" d="M3.4,18.6l-1.3-.4,.4-.7,1,1.1Z"/>
      <path class="uuid-f202d39b-7699-458b-8ca1-b95569454a28" d="M9.6,24.8l.6,1.3h-.8l.2-1.3Z"/>
      <path class="uuid-f202d39b-7699-458b-8ca1-b95569454a28" d="M55,27.1l1.1-.7-.4,1.1-.7-.4Z"/>
      <path class="uuid-f202d39b-7699-458b-8ca1-b95569454a28" d="M11,26.9l.5,.2-.4,.4v-.7Z"/>
      <path class="uuid-f202d39b-7699-458b-8ca1-b95569454a28" d="M50.3,22.2l-.2-.2,.2,.2Z"/>
      <path class="uuid-f202d39b-7699-458b-8ca1-b95569454a28" d="M16.4,22l-.2,.2,.2-.2Z"/>
      <path class="uuid-f202d39b-7699-458b-8ca1-b95569454a28" d="M21.4,26.9l.2-.2-.2,.2Z"/>
      <path class="uuid-f202d39b-7699-458b-8ca1-b95569454a28" d="M45.1,26.6l.2,.2-.2-.2Z"/>
    </g>
  </g>
</svg>