<?xml version="1.0" encoding="UTF-8"?>
<svg id="uuid-62134c9e-aa51-4621-85ef-d3812d6eb5ed" data-name="Layer 2" xmlns="http://www.w3.org/2000/svg" width="43.5" height="43.7" viewBox="0 0 43.5 43.7">
  <defs>
    <style>
      .uuid-2e43b403-003c-4bd4-ba91-03309857f27a {
        fill: #2039b7;
        stroke: #2039b7;
        stroke-miterlimit: 10;
      }
    </style>
  </defs>
  <g id="uuid-3dc3a472-cbf6-4d97-8ed6-0b4273247c4a" data-name="Capa 1">
    <g>
      <path class="uuid-2e43b403-003c-4bd4-ba91-03309857f27a" d="M22.7,43.1c-5.7,.2-11-1.6-15.4-5.7-4-3.7-6.2-8.3-6.7-13.7C0,17.4,2,11.9,6.2,7.3,9.8,3.4,14.2,1.1,19.5,.6,25.9,0,31.5,1.9,36.3,6.3c3.9,3.6,6.1,8.1,6.6,13.3,.6,6-1,11.4-5,16-3.9,4.6-9,7-15.2,7.5Zm1.6-2c4.5-.4,9-2.8,12.4-7,3.5-4.2,4.9-9.1,4.3-14.5-.5-5-2.7-9.2-6.5-12.5-4.3-3.8-9.4-5.4-15.1-4.7-5.1,.6-9.4,2.9-12.6,6.9C3.2,13.7,1.8,18.8,2.5,24.5c.6,4.8,2.8,8.8,6.5,12,4.1,3.6,9,5.2,15.3,4.7Z"/>
      <path class="uuid-2e43b403-003c-4bd4-ba91-03309857f27a" d="M26.4,17.2c2,0,4,0,6,0,.3,0,.6,0,.9,.2,.4,.2,.5,.6,.5,1,0,2.2,0,4.3,0,6.5,0,.3,0,.6,0,.9,0,.3-.3,.6-.7,.6-.2,0-.4,0-.7,0-1.9,0-3.9,0-5.8,0,0,0,0,0-.2,0,0,0,0,.2,0,.2,0,2,0,4,0,6,0,.3,0,.7-.3,.9-.2,.1-.3,.2-.5,.2-.3,0-.6,0-1,0-2,0-4.1,0-6.1,0-.4,0-.7,0-1-.3-.2-.2-.3-.5-.3-.7,0-1.8,0-3.6,0-5.4,0-.3,0-.6,0-.9,0,0-.2,0-.3,0-1.9,0-3.9,0-5.8,0-.2,0-.3,0-.5,0-.4,0-.8-.4-.8-.8,0-1.1,0-2.3,0-3.4,0-1.3,0-2.5,0-3.8,0-.2,0-.3,0-.5,.1-.5,.5-.7,1-.7,1.1,0,2.2,0,3.4,0,.9,0,1.8,0,2.7,0,0,0,.1,0,.2,0,0,0,0-.2,0-.2,0-2.1,0-4.2,0-6.3,0-.4,.3-.8,.8-.9,.2,0,.3,0,.5,0,2.2,0,4.5,0,6.7,0,.2,0,.3,0,.5,0,.5,.1,.7,.5,.7,1,0,1.5,0,3,0,4.6,0,.6,0,1.2,0,1.7h0Zm5.5,1.9c0,0,0,0-.1,0-1.5,0-3,0-4.5,0-.6,0-1.2,0-1.8,0-.6,0-.9-.4-.9-1,0-2.1,0-4.1,0-6.2,0,0,0-.1,0-.2h-5.6s0,0,0,0c0,2.1,0,4.2,0,6.3,0,.6-.2,.8-.7,1-.2,0-.4,0-.6,0-2,0-4.1,0-6.1,0v5.5s0,0,0,0c2,0,4,0,6,0,.1,0,.2,0,.3,0,.5,0,.9,.2,.9,.8,0,.4,0,.7,0,1.1,0,1.7,0,3.3,0,5,0,.2,0,.3,0,.5,0,0,0,0,0,0,1.8,0,3.5,0,5.3,0,.1,0,.2,0,.2-.2,0-1.4,0-2.9,0-4.3,0-.7,0-1.3,0-2,0-.3,.2-.7,.6-.8,.2,0,.4,0,.6,0,.9,0,1.8,0,2.7,0,1.1,0,2.2,0,3.3,0,.1,0,.2,0,.2-.2,0-1.7,0-3.3,0-5,0-.1,0-.2,0-.4Z"/>
      <path class="uuid-2e43b403-003c-4bd4-ba91-03309857f27a" d="M26.4,17.2h0Z"/>
    </g>
  </g>
</svg>