<?xml version="1.0" encoding="UTF-8"?>
<svg id="uuid-d074ecff-466f-465d-9872-1636e9d2c6f7" data-name="Layer 2" xmlns="http://www.w3.org/2000/svg" width="46.6" height="46.5" viewBox="0 0 46.6 46.5">
  <defs>
    <style>
      .uuid-ee931272-6ce9-48b7-a001-309ebf49d5e7 {
        fill: #2039b7;
      }
    </style>
  </defs>
  <g id="uuid-1cab643a-b62d-4ef7-b48d-c21bbf55a95f" data-name="Capa 1">
    <g>
      <path class="uuid-ee931272-6ce9-48b7-a001-309ebf49d5e7" d="M44.3,21.8c.4,0,.8,0,1.2,0,.7,0,1.1,.4,1.1,1.1,0,4.2,0,8.5,0,12.7,0,1.1-.4,2-1.4,2.6-.4,.2-.9,.3-1.4,.3-3.4,0-6.8,0-10.2,0-.2,0-.4,0-.6,0-.4,0-.7,.4-.7,.8,0,.1,0,.2,0,.3,0,1.9,0,3.8,0,5.7,0,.7-.4,1.1-1.1,1.1-2.9,0-5.8,0-8.7,0-.8,0-1.1-.4-1.1-1.1,0-1.8,0-3.6,0-5.4,0-.2,0-.3,0-.5,0-.5-.4-.8-.9-.9-.9,0-1.8,0-2.7,0-.1,0-.3,0-.4,0-.5,0-.9-.4-.9-.9,0-.5,.4-.8,.9-.9,.5,0,1,0,1.5,0,.6,0,1.2,0,1.8,0,1.4,.1,2.4,1.3,2.4,2.7,0,1.7,0,3.3,0,5,0,.2,0,.3,.2,.3,2.3,0,4.5,0,6.8,0,.2,0,.3,0,.3-.2,0-1.6,0-3.3,0-4.9,0-1.6,1.3-2.8,2.8-2.8,3.3,0,6.7,0,10,0,.2,0,.4,0,.6,0,.6,0,.9-.4,.9-1,0-1.5,0-2.9,0-4.4,0-2.5,0-5,0-7.6,0-.2,0-.3-.3-.3-2.3,0-4.5,0-6.8,0-.2,0-.2,0-.2,.2,0,1.5,0,3.1,0,4.6,0,.7-.4,1.1-1.1,1.1-1.6,0-3.2,0-4.8,0-.7,0-1.1-.3-1.1-1,0-1.5,0-3,0-4.5,0-.4,0-.4-.4-.4-2.2,0-4.4,0-6.7,0-.2,0-.3,0-.3,.3,0,1.6,0,3.1,0,4.7,0,.6-.4,1-1,1-2.5,0-5,0-7.5,0-.6,0-1-.2-1.1-.7,0,0,0-.2,0-.3,0-1.6,0-3.1,0-4.7,0-.2,0-.2-.2-.2-2.3,0-4.6,0-6.8,0-.2,0-.2,0-.2,.2,0,4,0,8,0,12,0,.5,.4,.9,.9,.9,.7,0,1.3,0,2,0,.7,0,1.1,.7,.8,1.4-.2,.3-.4,.4-.7,.4-.8,0-1.6,0-2.3,0-1.4-.1-2.4-1.3-2.4-2.8,0-2.4,0-4.8,0-7.2,0-1.9,0-3.8,0-5.7,0-.7,.4-1.1,1.1-1.1,.5,0,1,0,1.4,0,.1,0,.2,0,.2-.2,0-.6,0-1.2,0-1.8,0-.2,0-.2-.2-.3-3.1-1-5.3-3.1-6.4-6.1C-.2,11.3-.2,9.2,.5,7c.5-1.6,1.4-2.9,2.5-4.1C4.5,1.3,6.4,.4,8.5,.1c3.5-.5,6.5,.6,9,3.2,1.3,1.4,2.1,3.2,2.5,5.1,.2,1.4,.1,2.8-.3,4.2-.8,2.9-2.7,5-5.3,6.3-.4,.2-.9,.4-1.4,.5-.1,0-.2,0-.2,.2,0,.6,0,1.2,0,1.9,0,.2,0,.2,.2,.2,.5,0,1,0,1.5,0,.7,0,1.1,.4,1.1,1.1,0,1.5,0,3.1,0,4.6,0,.2,0,.2,.2,.2,1.8,0,3.7,0,5.5,0,.2,0,.2,0,.2-.2,0-1.5,0-3,0-4.4,0-.1,0-.3,0-.4,0-.5,.4-.8,1-.9,.3,0,.6,0,.9,0,.1,0,.2,0,.2-.2,0-.5,.2-.9,.3-1.4,0-.3,0-.3-.2-.3-.3,0-.7,0-1,0-.5-.1-.8-.4-.8-.9,0-4.2,0-8.3,0-12.5,0-.7,.4-1.1,1.1-1.1,.3,0,.7,0,1,0,.2,0,.2,0,.2-.2,0-.8,0-1.5,0-2.3,0-.8,.4-1.2,1.2-1.2,1.1,0,2.1,0,3.2,0,.7,0,1.1,.4,1.1,1.1,0,.8,0,1.6,0,2.4,0,.2,0,.2,.2,.2,.3,0,.7,0,1,0,.7,0,1,.4,1,1,0,4.2,0,8.3,0,12.5,0,.6-.4,1-1,1-.3,0-.6,0-.8,0-.1,0-.2,0-.1,.2,.1,.5,.3,1,.4,1.5,0,.1,0,.2,.2,.2,.4,0,.7,0,1.1,0,.4,0,.6,.3,.7,.7,0,.1,0,.3,0,.4,0,1.5,0,3.1,0,4.6,0,.2,0,.2,.2,.2,1,0,2,0,3,0,.2,0,.2,0,.2-.2,0-1.5,0-3,0-4.6,0-.7,.4-1.1,1.1-1.1,.3,0,.7,0,1,0,.1,0,.2,0,.1-.2-.6-1-.6-2.1,0-3.2,0,0,0-.1,0-.2-.4-1.3-.7-2.7-1.2-4-.2-.6-.1-1.2,0-1.8,0-1.6,.2-3.3,.3-4.9,0-.6,.1-1.2,.6-1.6,.4-.4,.8-.5,1.3-.5,1.5,0,3.1,0,4.6,0,1.1,0,1.8,.8,1.8,1.9,0,1.6,.2,3.2,.3,4.7q.1,1.6-.4,3.5c-.2,.8-.5,1.7-.7,2.6,0,.1,0,.2,0,.4,.5,1.1,.5,2.2-.1,3.2,0,0,0,0,0,.1ZM18.2,9.9c0-4.4-3.7-8.1-8.1-8.1C5.5,1.8,1.8,5.6,1.8,10c0,4.6,3.7,8.2,8.2,8.2,4.2,0,8.2-3.4,8.1-8.3Zm5.5,2.8c0,1.7,0,3.5,0,5.2,0,.2,0,.2,.2,.2,2,0,3.9,0,5.9,0,.2,0,.2,0,.2-.2,0-3.5,0-7,0-10.4,0-.2,0-.2-.2-.2-2,0-4,0-5.9,0-.2,0-.2,0-.2,.2,0,1.7,0,3.5,0,5.2Zm17.5,0s0,0,0,0c.8,0,1.6,0,2.4,0,0,0,.2,0,.2-.1,0-.8-.1-1.6-.2-2.5,0-.9-.1-1.8-.2-2.6,0-.2,0-.2-.2-.2-1.4,0-2.7,0-4.1,0-.4,0-.4,0-.4,.4,0,1.6-.2,3.2-.3,4.8,0,.2,0,.2,.2,.2,.8,0,1.6,0,2.5,0Zm0,9.1c1,0,1.8-.8,1.8-1.7,0-1.1-.7-1.9-1.7-1.9-1,0-1.9,.8-1.9,1.8,0,1,.8,1.8,1.8,1.8Zm0-7.3c-.7,0-1.5,0-2.2,0-.2,0-.2,0-.2,.2,.2,.6,.4,1.3,.5,1.9,0,.2,0,.2,.2,.1,1.1-.5,2.2-.5,3.3,0,.1,0,.2,0,.2,0,.2-.6,.4-1.3,.6-1.9,0-.2,0-.2-.2-.2-.7,0-1.5,0-2.2,0Zm-14.3,7.3c.5,0,.9,0,1.4,0,.1,0,.2,0,.1-.2-.1-.5-.3-1-.4-1.5,0-.1,0-.2-.2-.2-.6,0-1.3,0-1.9,0-.1,0-.2,0-.2,.2-.1,.5-.2,1-.4,1.4,0,.2,0,.2,.2,.2,.5,0,.9,0,1.4,0Zm-15.9-.9c0-.3,0-.5,0-.8,0-.1,0-.2-.2-.2-.5,0-1,0-1.5,0-.1,0-.2,0-.2,.2,0,.5,0,1,0,1.5,0,.1,0,.2,.2,.2,.5,0,1,0,1.5,0,.1,0,.2,0,.2-.2,0-.2,0-.5,0-.7ZM26.8,3.6c-.2,0-.5,0-.7,0-.1,0-.2,0-.2,.2,0,.5,0,1,0,1.5,0,0,0,.1,.1,.1,.5,0,1.1,0,1.6,0,0,0,.1,0,.1-.1,0-.5,0-1,0-1.5,0-.1,0-.1-.1-.1-.3,0-.5,0-.8,0Z"/>
      <path class="uuid-ee931272-6ce9-48b7-a001-309ebf49d5e7" d="M13.3,38.6c-.5,0-.9-.4-.9-.9,0-.5,.4-.9,.9-.9,.5,0,.9,.4,.9,.9,0,.5-.4,.9-.9,.9Z"/>
      <path class="uuid-ee931272-6ce9-48b7-a001-309ebf49d5e7" d="M10.2,12.7c-1.7,0-2.9-1.2-2.9-2.7,0-.3,0-.6,.2-.9,0-.1,0-.2,0-.3-.6-.7-1.3-1.4-1.9-2-.5-.6-.3-1.4,.4-1.5,.3,0,.6,0,.8,.2,.6,.7,1.3,1.3,1.9,2,.1,.1,.2,.1,.3,0,1.2-.5,2.6-.1,3.4,1,.5,.9,.6,1.7,.2,2.7-.5,1-1.3,1.5-2.3,1.5Zm-1.1-2.8c0,.6,.4,1,.9,1,.5,0,.9-.4,.9-.9,0-.5-.4-.9-.9-.9-.5,0-.9,.4-.9,.9Z"/>
      <path class="uuid-ee931272-6ce9-48b7-a001-309ebf49d5e7" d="M12.8,13.9c0-.5,.4-.9,.9-.9,.5,0,.9,.4,.9,.9,0,.5-.4,.9-.9,.9-.5,0-.9-.4-.9-.9Z"/>
      <path class="uuid-ee931272-6ce9-48b7-a001-309ebf49d5e7" d="M4.6,10.9c-.5,0-.9-.4-.9-.9,0-.5,.4-.9,.9-.9,.5,0,.9,.4,.9,.9,0,.5-.4,.9-.9,.9Z"/>
      <path class="uuid-ee931272-6ce9-48b7-a001-309ebf49d5e7" d="M6.2,13c.5,0,.9,.4,.9,.9,0,.5-.4,.9-.9,.9-.5,0-.9-.4-.9-.9,0-.5,.4-.9,.9-.9Z"/>
      <path class="uuid-ee931272-6ce9-48b7-a001-309ebf49d5e7" d="M14.8,6.2c0,.5-.4,.9-.9,.9-.5,0-.9-.4-.9-.9,0-.5,.4-.9,.9-.9,.5,0,.9,.4,.9,.9Z"/>
      <path class="uuid-ee931272-6ce9-48b7-a001-309ebf49d5e7" d="M16.4,10.2c0,.4-.4,.9-.9,.9-.5,0-1-.5-1-.9,0-.5,.4-.9,.9-.9,.5,0,.9,.4,.9,.9Z"/>
      <path class="uuid-ee931272-6ce9-48b7-a001-309ebf49d5e7" d="M11,4.5c0,.5-.4,.9-.9,.9-.5,0-.9-.4-.9-.9,0-.5,.4-.9,.9-.9,.5,0,.9,.4,.9,.9Z"/>
    </g>
  </g>
</svg>